<svg width="322" height="200" viewBox="0 0 322 200" fill="none" xmlns="http://www.w3.org/2000/svg">
<rect width="322" height="200" fill="white"/>
<path d="M185.899 67.4804V64.4804H241.899C251.007 64.3029 257.38 70.3625 259.81 74.0539C260.794 75.5497 261.038 77.37 261.122 79.1588C261.127 79.2687 261.132 79.3803 261.136 79.4931C261.234 82.1568 260.59 84.8452 259.047 87.0187C256.159 91.0871 250.503 93.9821 234.899 97.9804C244.63 99.2119 249.65 100.797 253.274 107.229C254.096 108.689 254.609 110.298 255.055 111.912C258.09 122.891 260.632 127.758 267.399 128.48H273.899V132.48H245.399C243.102 130.685 241.666 127.825 239.465 120.747C238.381 117.259 237.87 113.619 237.148 110.039C235.626 102.493 232.414 100.169 225.399 99.4804H215.899V99.6508V123.48C216.344 127.359 217.384 128.531 220.899 128.48H228.399V132.48H186.899V128.48H193.379C194.058 128.48 194.741 128.449 195.403 128.295C197.581 127.787 198.325 126.74 198.399 123.98V70.9804C198.379 68.4838 197.78 67.6558 195.399 67.4804H185.899Z" fill="#0D3579" stroke="#12307B"/>
<path d="M226.472 96.4716C227.588 96.3087 228.618 96.1291 229.571 95.9261C230.501 95.728 231.357 95.5077 232.146 95.2589C232.571 95.1251 232.976 94.9831 233.363 94.8319C234.47 94.3995 235.429 93.8919 236.266 93.2865C237.502 92.3926 238.455 91.2994 239.228 89.9588C239.511 89.4674 239.77 88.9428 240.01 88.3825C240.309 87.6863 240.578 86.935 240.827 86.1242C240.831 86.113 240.834 86.1018 240.838 86.0906C240.94 85.7557 241.04 85.4107 241.136 85.0553C241.319 84.3818 241.399 83.6875 241.399 83.0011V81.9481C241.399 81.9332 241.399 81.9183 241.399 81.9034V80.4637C241.399 80.4534 241.399 80.4431 241.399 80.4327V80.243C241.399 79.0081 241.134 77.7826 240.608 76.6611C240.58 76.602 240.552 76.5432 240.525 76.4847C240.521 76.4766 240.517 76.4686 240.513 76.4605C240.447 76.3203 240.381 76.1816 240.315 76.0445C239.166 73.648 238.062 71.7471 236.116 70.3996C234.063 68.9781 231.145 68.2187 226.425 67.9775L226.412 67.9768H226.399H216.399H215.899V68.4768V95.9768V96.4768H216.399H226.399H226.436L226.472 96.4716Z" fill="white" stroke="#12307B"/>
<path d="M93.8994 131.977H62.8994V129.477H66.8994C72.4916 128.839 74.6669 127.683 75.3994 122.977V72.4768C74.2393 69.8638 73.049 68.5417 67.8994 66.9768H62.3994V64.4768H92.3994L122.899 109.977L147.399 64.4768H179.899V67.4768C169.566 66.8794 167.175 68.8581 167.399 75.4768V121.977C167.832 127.825 170.837 129.174 179.899 128.977V131.977H138.399V129.477C146.834 129.777 148.531 127.686 148.899 121.977V75.4768L118.899 131.477H116.899L81.3994 77.9768V122.977C82.3128 128.79 85.4992 129.843 93.8994 129.477V131.977Z" fill="#0D3579" stroke="#12307B"/>
<path d="M60.8994 39.9768C116.899 22.4768 154.399 48.9768 154.399 48.9768C154.399 48.9768 107.899 29.4768 63.8994 48.9768C53.6779 53.5068 51.3994 53.9768 40.3994 63.9768C12.8994 90.4768 40.3994 114.477 44.8994 117.977C44.8994 117.977 5.39933 99.4768 20.3995 68.9768C31.0353 54.1305 39.5458 47.5387 60.8994 39.9768Z" fill="#C01214" stroke="#BA1511"/>
<path d="M260.399 160.477C204.399 177.977 166.899 151.477 166.899 151.477C166.899 151.477 213.399 170.977 257.399 151.477C267.621 146.947 269.899 146.477 280.899 136.477C308.399 109.977 280.899 85.9768 276.399 82.4768C276.399 82.4768 315.899 100.977 300.899 131.477C290.264 146.323 281.753 152.915 260.399 160.477Z" fill="#C01214" stroke="#BA1511"/>
</svg>
